<svg style="height: 512px; width: 512px;" xmlns="http://www.w3.org/2000/svg" viewBox="0 0 512 512">
<defs>

<radialGradient id="lorc-semi-closed-eye-gradient-7">
<stop offset="0%" stop-color="#000000" stop-opacity="1"></stop>
<stop offset="100%" stop-color="#4a90e2" stop-opacity="1"></stop>
</radialGradient>
</defs>

<g class="" style="" transform="translate(0,0)">
<g>
<path d="M259.906 165.094C240.178 164.956 220.398 166.864 200.626 170.844C172.356 189.482 153.75 221.524 153.75 258C153.75 294.69 172.578 326.857 201.125 345.438C220.553 349.182 240.029 351.008 259.469 350.906C278.049 350.808 296.617 348.954 315.093 345.376C343.566 326.783 362.343 294.639 362.343 258C362.343 221.564 343.77 189.553 315.563 170.906C297.059 167.159 278.495 165.224 259.905 165.094Z" class="" fill="url(#lorc-semi-closed-eye-gradient-7)"></path>
<path d="M162 181.314C117.642 196.394 73.53 222.088 30.375 258.938C73.109 295.328 117.558 320.693 162.595 335.438C145.395 314.283 135.063 287.325 135.063 258C135.063 229.017 145.161 202.36 162 181.312Z" class="" fill="#4A90E2"></path>
<path d="M354.188 181.406C370.976 202.44 381.03 229.06 381.03 258C381.03 287.296 370.725 314.23 353.563 335.375C398.918 320.515 443.369 295.018 485.719 258.969C443.049 222.542 398.941 196.651 354.186 181.405Z" class="" fill="#4A90E2"></path>
<path d="M258.063 198.781C264.306 198.781 270.318 199.738 275.969 201.531C266.869 206.169 260.624 215.621 260.624 226.531C260.624 242.023 273.196 254.595 288.687 254.595C299.847 254.595 309.482 248.061 313.999 238.625C316.103 244.702 317.249 251.211 317.249 258.001C317.249 290.691 290.751 317.189 258.061 317.189C225.371 317.189 198.875 290.69 198.875 258C198.875 225.31 225.373 198.78 258.063 198.78Z" class="" fill="#000000"></path></g></g></svg>